<svg id="Layer_1" data-name="Layer 1" xmlns="http://www.w3.org/2000/svg" viewBox="0 0 288.24 350"><defs><style>.cls-1{fill:#08b;}.cls-2{fill:red;}.cls-3{fill:#fff;}.cls-4,.cls-5{fill:#f9c507;}.cls-5{stroke:#000;stroke-linecap:round;stroke-linejoin:round;stroke-width:5px;}</style></defs><title>JUGv2-new-5-one</title><path class="cls-1" d="M199.11,61.15s-85.15,42.32-142,45c1.4,55.35-13.13,245.75,142,300.54,155.15-54.79,140.66-245.19,142.05-300.54C284.29,103.47,199.11,61.15,199.11,61.15Z" transform="translate(-55 -58.88)"/><path d="M199.11,408.88l-.68-.24C55.27,358.09,55.2,193.55,55.18,123.3c0-6.61,0-12.32-.12-17.06l0-2,2-.09c55.8-2.66,140.37-44.4,141.22-44.83l.9-.45.9.45c.85.42,85.45,42.16,141.25,44.83l2,.09,0,2c-.12,4.73-.12,10.43-.12,17,0,70.26-.11,234.81-143.28,285.37Zm-140-300.77c.08,4.37.08,9.44.08,15.19,0,69.29.08,231.4,139.87,281.28C338.91,354.69,339,192.57,339,123.27c0-5.74,0-10.81.08-15.17-53.45-3.36-130.75-40.21-140-44.69C189.88,67.9,112.61,104.74,59.16,108.11Z" transform="translate(-55 -58.88)"/><path class="cls-2" d="M213.51,199.08a18.21,18.21,0,0,1-2.38,15.51,21.2,21.2,0,0,0,2.93-10.78v-.08a23.75,23.75,0,0,0-.09-2.39,13.53,13.53,0,0,0-.47-2.17c0-.06,0-.13,0-.19A.8.8,0,0,1,213.51,199.08Z" transform="translate(-55 -58.88)"/><path class="cls-2" d="M194.2,186.37a3.27,3.27,0,0,0,.58,0,4.29,4.29,0,0,0,.45-.13c8.47.49,15.79,5.25,18.24,12.74,0,.06,0,.13,0,.19a13.49,13.49,0,0,1,.46,2.17,23.75,23.75,0,0,1,.09,2.39v.08a20.94,20.94,0,0,1-1.2,7,21.26,21.26,0,0,1-1.75,3.74.18.18,0,0,1,0,.07,25.09,25.09,0,0,1-13.46,10,26.39,26.39,0,0,1-8.08,1.28,22.56,22.56,0,0,1-13.31-4.13,16.18,16.18,0,0,1-2.39-2.48,20.41,20.41,0,0,1-4.14-10.07,17.07,17.07,0,0,1,.39-7,18.5,18.5,0,0,1,2.2-4.52c0-.11.55-.54.64-.65s.37-.48.57-.71a22.24,22.24,0,0,1,1.57-1.7,31,31,0,0,1,16.44-8.32,9.89,9.89,0,0,1,1.95-.17H194C194.2,186.27,194.21,186.37,194.2,186.37Zm-13.71,12.91c1.73-1.28,2.68-3,2.1-3.79s-2.51-.46-4.29.82-2.64,3-2.06,3.79S178.76,200.56,180.49,199.28Z" transform="translate(-55 -58.88)"/><path class="cls-3" d="M182.59,195.49c.58.82-.37,2.51-2.1,3.79s-3.63,1.65-4.25.82.33-2.51,2.06-3.79S182,194.71,182.59,195.49Z" transform="translate(-55 -58.88)"/><path class="cls-2" d="M169.79,213.1c-3.3-10.29,3.82-21.76,15.89-25.63a26.44,26.44,0,0,1,8.08-1.28H194c.4,0,.8,0,1.2,0a4.29,4.29,0,0,1-.45.13,3.27,3.27,0,0,1-.58,0s0-.1-.21-.1h-.55a9.89,9.89,0,0,0-1.95.17,31,31,0,0,0-16.44,8.32,22.24,22.24,0,0,0-1.57,1.7c-.2.23-.38.46-.57.71s-.64.54-.64.65a18.46,18.46,0,0,0-2.2,4.52,17,17,0,0,0-.39,7,20.41,20.41,0,0,0,4.14,10.07,16.09,16.09,0,0,0,2.39,2.48A17.34,17.34,0,0,1,169.79,213.1Z" transform="translate(-55 -58.88)"/><g id="_Group_" data-name="&lt;Group&gt;"><path d="M265,113.11v.78l0,.82-.17.9-.21,1-.33,1.07-.37,1.16-.5,1.24-.62,1.32-.62,1.32-.49,1.28-.41,1.28-.37,1.2-.28,1.19-.21,1.16-.17,1.16-.08,1.11,0,1.07,0,1.07,0,1,.08,1,.12,1,.17,1,.16,1,.21,1,.21.94.25,1,.21.94.25,1,.21,1,.21.94.21,1,.17,1,.18.94.16,1,.15.95.18,1v1l-.18,1-.26,1.07-.17,1-.21,1-.25.95-.25.9-.29.78-.28.78-.33.7-.33.62-.33.62-.37.54-.37.49-.41.5-.37.41-.41.41-.41.41-.41.33-.41.37-.46.33-.41.33-.41.33-.41.33-.41.33-.41.33-.41.33-.37.37-.41.41-.37.41-.33.41-.37.5-.33.53-.29.54-.29.62-.29.66-.25.7-.21.74-.17.82-.14.82-.1.9-.12.95-.16,1v13.06l.1,1.07.1,1.12,0,1.07-.13,1.07-.12,1-.13,1-.21,1-.24.94-.25.91-.33.86-.37.82-.41.78-.45.74-.49.7-.46.74-.41.74-.41.78-.37.78-.37.83-.33.82-.29.82-.29.87-.25.86-.25.86-.17.91-.21.9-.12.91-.17.91-.09.94-.1.91-.08.94-.11,1v.86l.11,1,.11.94.08.91.13.94.13.91.16.95.16.91.21.9.24.91.25.87.06.19c9.74,22.38,16.22,47.34,16.13,73.79-.08,30-7.91,33.42-17.64,33.63S226.51,306,205.74,305.41s-37.26,26.83-50.28,26.83c-7.38,0-9.11-4.45-8.53-15.74.19-3.76.46-7.61.81-11.53-1,2.2-2.09,3.58-3.16,3.58-3.67,0-10-1.93-8.78-8s11.13-10.59,11.42-21.76-4.37-12.32-3.63-24.4c.7-11.49,14.12-15.18,19.06-40.62,3.53-31,4.81-77.33,1-85.36,12.66,7.08,43,34.22,66.37,73.12l.32.32.53.45.58.37.62.33.62.19.66.19.62.09.7,0h.66l.7,0,.66-.05.7-.17L238,203l.66-.25.66-.33L240,202l.62-.41.58-.45.57-.49.54-.54.54-.58.49-.58.41-.66.41-.66.33-.7.33-.7.25-.74.21-.78.13-.78.09-.78,0-.82,0-.82v-3.38l0-.86,0-.87,0-.82-.08-.82-.09-.82-.12-.83-.13-.78-.12-.78-.17-.78-.17-.74-.21-.7-.21-.66-.21-.66-.25-.66-.25-.57-.29-.54-.33-.54-.33-.45-.33-.45-.37-.37-.41-.37-.41-.29-.41-.21-.46-.21-.49-.13-.49,0-.54-.08L238,173l-.49-.08-.49-.17-.5-.17-.49-.16-.5-.21-.49-.21-.45-.25-.45-.25-.5-.25-.45-.25-.45-.29-.45-.29-.46-.25-.45-.29-.45-.29-.45-.29-.45-.29-.46-.25-.45-.29-.49-.25-.45-.25-.46-.21-.49-.25-.45-.16-.5-.21-.49-.12-.49-.15-.5-.06-.53,0h-1.57l-.54,0h-.53l-.54.09-.53.08-.5.13-.53.12-.54.13-.49.17-.54.12-.49.17-.54.13-.49.12-.5.09-.45.08-.49.08-.46,0-.45,0-.45,0-.45,0-.41-.08-.41-.13-.41-.21-.37-.21-.37-.29-.37-.33-.33-.41-.33-.45-.29-.53-.29-.58-.25-.7-.21-.66L209,163l-.09-.62,0-.66.08-.58.09-.58.21-.58.21-.49.29-.54.29-.49.37-.45.41-.46.46-.41.49-.41.49-.37.58-.37.58-.33.62-.33.62-.33.66-.29.66-.25.7-.29.66-.21.75-.25.7-.21.7-.21.74-.17.7-.17.74-.17.7-.16.7-.13.56-.1-.51-.52-.58-.62-.58-.62-.53-.62-.54-.62-.53-.62-.54-.62-.49-.66-.5-.62-.45-.66-.45-.66-.45-.62-.46-.66-.41-.66-.41-.66-.41-.66-.37-.66-.37-.7-.37-.66-.37-.66-.37-.7-.33-.66-.33-.7-.33-.66-.33-.7-.28-.66-.33-.7-.29-.7-.29-.7-.29-.7-.25-.7-.29-.7-.25-.66-.25-.7-.29-.7-.21-.7-.25-.66-.21-.66-.21-.66-.21-.66-.16-.66-.13-.66-.13-.62-.14-.62-.12-.62-.11-.58-.18-.58v-.58l.18-.57.22-.54.13-.54.13-.53.21-.5.21-.49.25-.45.33-.45.37-.46.37-.41.45-.37.5-.37.57-.37.62-.33.66-.29.7-.29.74-.25.66-.12.66,0,.58.08.58.17.53.21.5.33.45.37.45.45.41.54.41.58.37.62.41.66.37.7.37.78.37.78.37.78.37.82.37.86.41.86.41.91.45.86.45.86.49.9.5.87.58.82.57.86.62.78.66.78.74.74.78.74.65.52-.2-.73-.25-.91-.21-.86-.21-.86-.21-.78-.21-.78-.21-.74-.17-.74-.17-.7-.16-.7-.17-.66-.13-.62-.17-.66-.12-.58-.09-.62-.12-.58-.13-.58-.08-.53-.08-.54-.09-.58,0-.49-.08-.54,0-.53,0-.5v-6.88l0-.49,0-.5,0-.45,0-.49,0-.41.08-.46L227,107l.08-.37.13-.37.17-.37.17-.33.21-.33L228,105l.25-.25.28-.25.33-.25.33-.21.37-.17.41-.13.45-.14.5-.14.53-.08.58-.12h.62l.66.12.7.12.78.09.74.16.71.25.62.33.57.41.54.5.45.57.41.62.37.7.33.74.33.78.24.86.25.87.21.94.21.95.2.94.21,1,.16,1,.17,1,.17,1,.21,1.07.21,1,.2,1,.21,1,.25,1,.29,1,.33,1,.33.9.37.86.45.86.45.78.54.74.49.6.17-.52.16-.66.16-.62.21-.66.16-.66.17-.7.17-.66.17-.66.21-.7.16-.66.17-.66.21-.7.16-.66.21-.66.21-.66.21-.62.25-.66.21-.62.25-.62.25-.58.24-.62.29-.54.29-.57L251,114l.33-.49.33-.5.33-.49.37-.45.37-.41.41-.41.41-.37.46-.33.45-.33.49-.29.54-.29.53-.25.58-.21.58-.21.62-.17.58-.14.62-.11.58-.1h.57l.58.1.58.14.54.13.49.17.49.25.46.29.41.33.37.37.29.45.29.53.21.58.12.66ZM253.88,296.67c.62-35.53-21.06-80.9-33.87-100.89a38.06,38.06,0,0,0-4.35.54,16.69,16.69,0,0,1,.73,1.89c1.85,5.79.85,12-2.6,17.6a27.8,27.8,0,0,1-15.25,11.63,29.28,29.28,0,0,1-8.94,1.42,26.83,26.83,0,0,1-3.21-.19A23.53,23.53,0,0,1,170.3,220l-1.29.87C165.8,236.58,145.73,324.49,156,325.6s24.77-27.2,48.59-27,33.26,31.73,39.07,31.53S253.26,332.2,253.88,296.67Zm-42.74-82.08a18.21,18.21,0,0,0,2.38-15.51.63.63,0,0,0,0-.11c-2.45-7.49-9.77-12.25-18.24-12.74-.4,0-.8,0-1.2,0h-.27a26.44,26.44,0,0,0-8.08,1.28c-12.07,3.87-19.19,15.35-15.89,25.63a17.34,17.34,0,0,0,6.43,8.76A22.56,22.56,0,0,0,189.54,226a26.4,26.4,0,0,0,8.08-1.28,25.1,25.1,0,0,0,13.47-10A.2.2,0,0,0,211.14,214.59Zm-55,34.83c1-9.42-7.63,2.8-7.63,9.58,0,4,2.11,7.76,3.62,12.15C153.38,263.75,154.75,256.44,156.17,249.42Z" transform="translate(-55 -58.88)"/><path class="cls-3" d="M220,195.78c12.82,20,34.49,65.36,33.87,100.89s-4.45,33.26-10.26,33.46-15.2-31.32-39.07-31.53-38.37,28.11-48.59,27,9.85-89,13.06-104.76l1.29-.87a23.53,23.53,0,0,0,16.06,8.69,26.83,26.83,0,0,0,3.21.19,29.28,29.28,0,0,0,8.94-1.42,27.8,27.8,0,0,0,15.25-11.63c3.45-5.56,4.46-11.81,2.6-17.6a16.69,16.69,0,0,0-.73-1.89A38.06,38.06,0,0,1,220,195.78Z" transform="translate(-55 -58.88)"/><path class="cls-2" d="M215.65,196.32a16.69,16.69,0,0,1,.73,1.89c1.85,5.79.85,12-2.6,17.6a27.8,27.8,0,0,1-15.25,11.63,29.28,29.28,0,0,1-8.94,1.42,26.83,26.83,0,0,1-3.21-.19A23.53,23.53,0,0,1,170.3,220l-1.29.87c-2.58,12.64-16,71.84-15.93,95.23q7.55,1.53,15.3,2.47c9-8.05,20.61-20.06,36.16-19.93,12.6.11,21.17,9,27.31,17.25A192.38,192.38,0,0,0,253.4,310c.23-3.72.39-8.13.48-13.37.62-35.53-21.06-80.9-33.87-100.89A38.06,38.06,0,0,0,215.65,196.32Z" transform="translate(-55 -58.88)"/><path class="cls-3" d="M220,195.78a38.06,38.06,0,0,0-4.35.54,16.69,16.69,0,0,1,.73,1.89c1.85,5.79.85,12-2.6,17.6a27.8,27.8,0,0,1-15.25,11.63,29.28,29.28,0,0,1-8.94,1.42,26.83,26.83,0,0,1-3.21-.19A23.53,23.53,0,0,1,170.3,220l-1.29.87c-2.07,10.15-11.15,50.31-14.6,77.85a177.38,177.38,0,0,0,34.37,4,33.18,33.18,0,0,1,15.76-4.05,26.06,26.06,0,0,1,11,2.53,175.78,175.78,0,0,0,38.27-9.55C252.47,256.92,232.21,214.82,220,195.78Z" transform="translate(-55 -58.88)"/><path class="cls-2" d="M192,285.44a159.23,159.23,0,0,0,59.74-11.56C246,243.6,230.19,211.67,220,195.78a38.06,38.06,0,0,0-4.35.54,16.69,16.69,0,0,1,.73,1.89c1.85,5.79.85,12-2.6,17.6a27.8,27.8,0,0,1-15.25,11.63,29.28,29.28,0,0,1-8.94,1.42,26.83,26.83,0,0,1-3.21-.19A23.53,23.53,0,0,1,170.3,220l-1.29.87c-1.67,8.18-7.9,35.88-12.05,60.74A160.22,160.22,0,0,0,192,285.44Z" transform="translate(-55 -58.88)"/><path class="cls-3" d="M192,268.17a142,142,0,0,0,55.59-11.26c-7.27-24.64-19.27-48.2-27.56-61.14a38.06,38.06,0,0,0-4.35.54,16.69,16.69,0,0,1,.73,1.89c1.85,5.79.85,12-2.6,17.6a27.8,27.8,0,0,1-15.25,11.63,29.28,29.28,0,0,1-8.94,1.42,26.83,26.83,0,0,1-3.21-.19A23.53,23.53,0,0,1,170.3,220l-1.29.87c-1.29,6.34-5.32,24.37-9,43.73A142.85,142.85,0,0,0,192,268.17Z" transform="translate(-55 -58.88)"/><path class="cls-2" d="M192,250.91a124.74,124.74,0,0,0,50-10.41,256.45,256.45,0,0,0-22-44.72,38.06,38.06,0,0,0-4.35.54,16.69,16.69,0,0,1,.73,1.89c1.85,5.79.85,12-2.6,17.6a27.8,27.8,0,0,1-15.25,11.63,29.28,29.28,0,0,1-8.94,1.42,26.83,26.83,0,0,1-3.21-.19A23.53,23.53,0,0,1,170.3,220l-1.29.87c-.9,4.42-3.13,14.51-5.64,26.78A125.51,125.51,0,0,0,192,250.91Z" transform="translate(-55 -58.88)"/><path class="cls-3" d="M192,233.65a107.51,107.51,0,0,0,43.39-9.09A237.57,237.57,0,0,0,220,195.78a38.06,38.06,0,0,0-4.35.54,16.69,16.69,0,0,1,.73,1.89c1.85,5.79.85,12-2.6,17.6a27.8,27.8,0,0,1-15.25,11.63,29.28,29.28,0,0,1-8.94,1.42,26.83,26.83,0,0,1-3.21-.19A23.53,23.53,0,0,1,170.3,220l-1.29.87c-.43,2.11-1.17,5.54-2.09,9.88A108.15,108.15,0,0,0,192,233.65Z" transform="translate(-55 -58.88)"/></g><path class="cls-4" d="M195.55,138.54s-1.86,11.28-17.87,18-26,1.18-26,1.18c-4.48-8.81-11.09-14.77-19.54-17.94,3.3-4.27,7.77-3.7,12.52-.3,1.48-4.11,7-4.31,9.38-.72-5.33,5.18-.59,10.48,5.25,7.93,6.72-2.94,4.2-10.17-1.94-9.27-1.27-2.4-.67-5.75,3.37-7.47-1.34-3.31-.33-7.24,1.14-8.72,2.9-.09,5.48,1.93,7.37,4.58a6.54,6.54,0,0,1,8.49,2.82c-5.82,4.75-1,10.32,5.23,7.62,5.3-2.31,5.09-10-2.17-9.06-1.73-4.2,2.51-8.25,6.08-7.08,1-6.64,5-8.2,9.52-7.62-4.69,11.53-3.06,20.63-.83,26.07" transform="translate(-55 -58.88)"/><path d="M162.32,161c-7,0-11-2.18-11.2-2.27a1.14,1.14,0,0,1-.47-.48c-4.29-8.43-10.65-14.28-18.92-17.39a1.15,1.15,0,0,1-.5-1.77c3.17-4.11,7.72-4.6,13-1.28a6,6,0,0,1,5.12-2.72,6.82,6.82,0,0,1,5.66,3,1.14,1.14,0,0,1-.15,1.46c-1.69,1.65-2.34,3.38-1.78,4.77a3.34,3.34,0,0,0,3.26,1.86,6.29,6.29,0,0,0,2.52-.57c2.84-1.24,3.54-3.17,3.25-4.56a3.52,3.52,0,0,0-3.7-2.6,6,6,0,0,0-.86.06,1.14,1.14,0,0,1-1.18-.6,6.08,6.08,0,0,1-.39-4.86,6.93,6.93,0,0,1,3.37-3.74c-.94-3.41,0-7.24,1.74-8.94a1.14,1.14,0,0,1,.77-.34c2.78-.09,5.51,1.45,7.8,4.34A7.38,7.38,0,0,1,172,124a7.87,7.87,0,0,1,6.76,4.1,1.15,1.15,0,0,1-.3,1.39c-1.75,1.43-2.52,3.07-2.06,4.38a3.39,3.39,0,0,0,3.38,1.92,6.85,6.85,0,0,0,2.73-.61,4.5,4.5,0,0,0,2.92-4.74c-.34-1.65-2-2.46-4.48-2.14a1.14,1.14,0,0,1-1.21-.7,6.24,6.24,0,0,1,.61-5.93,6.41,6.41,0,0,1,5.61-2.92c1.35-6.2,5.47-7.54,8.78-7.54a14,14,0,0,1,1.81.12,1.14,1.14,0,0,1,.91,1.57c-4.84,11.88-2.6,20.9-.83,25.21a1.15,1.15,0,0,1,.07.62c-.08.49-2.16,12-18.56,18.84A41,41,0,0,1,162.32,161Zm-9.8-4.14a24.12,24.12,0,0,0,9.8,1.85,38.79,38.79,0,0,0,14.92-3.23c13.76-5.75,16.68-15,17.12-16.79-1.8-4.57-3.89-13.66.4-25.11h0c-3.85,0-6.05,2.18-6.73,6.72a1.12,1.12,0,0,1-.53.79,1.14,1.14,0,0,1-1,.11,4.14,4.14,0,0,0-4.9,4.77H182c3.56,0,5.27,2.08,5.67,4a6.73,6.73,0,0,1-4.24,7.3,9.1,9.1,0,0,1-3.65.8,5.63,5.63,0,0,1-5.54-3.44c-.72-2,0-4.3,2-6.23a5.67,5.67,0,0,0-4.24-2.11,5.31,5.31,0,0,0-2.27.53,1.14,1.14,0,0,1-1.42-.37c-1.05-1.48-3.19-3.91-5.92-4.1a8.16,8.16,0,0,0-.61,7.14,1.15,1.15,0,0,1-.61,1.48,5.18,5.18,0,0,0-3.07,2.86,3.65,3.65,0,0,0,0,2.34c3.14-.12,5.67,1.68,6.24,4.41.45,2.17-.47,5.33-4.57,7.12a8.57,8.57,0,0,1-3.43.76,5.57,5.57,0,0,1-5.38-3.29c-.83-2-.25-4.37,1.59-6.51a4.5,4.5,0,0,0-3.19-1.34,3.68,3.68,0,0,0-3.6,2.5,1.14,1.14,0,0,1-1.74.54c-2.33-1.67-4.44-2.51-6.25-2.51a5.3,5.3,0,0,0-3.64,1.44A36.75,36.75,0,0,1,152.51,156.84Z" transform="translate(-55 -58.88)"/><path class="cls-5" d="M172.17,145.32" transform="translate(-55 -58.88)"/><polygon class="cls-3" points="58.44 178.54 65.26 192.36 80.52 194.58 69.48 205.34 72.08 220.54 58.44 213.36 44.79 220.54 47.4 205.34 36.35 194.58 51.61 192.36 58.44 178.54"/><path d="M129.21,282.34,113.44,274l-15.77,8.29,3-17.56L87.93,252.35l17.63-2.56,7.88-16,7.88,16L139,252.35,126.2,264.78ZM94.79,254.58l9.32,9.09-2.2,12.83,11.53-6.06L125,276.5l-2.2-12.83,9.33-9.09L119.2,252.7,113.44,241l-5.76,11.68Z" transform="translate(-55 -58.88)"/><polygon class="cls-3" points="229.8 178.54 236.63 192.36 251.88 194.58 240.84 205.34 243.45 220.54 229.8 213.36 216.16 220.54 218.76 205.34 207.72 194.58 222.98 192.36 229.8 178.54"/><path d="M300.57,282.34,284.81,274,269,282.34l3-17.56-12.76-12.44,17.63-2.56,7.88-16,7.88,16,17.63,2.56-12.76,12.44Zm-34.42-27.76,9.33,9.09-2.2,12.83,11.53-6.06,11.53,6.06-2.2-12.83,9.33-9.09-12.89-1.87L284.81,241,279,252.7Z" transform="translate(-55 -58.88)"/><polygon class="cls-3" points="144.12 278.46 150.94 292.29 166.2 294.5 155.16 305.27 157.77 320.46 144.12 313.29 130.47 320.46 133.08 305.27 122.04 294.5 137.3 292.29 144.12 278.46"/><path d="M214.89,382.26,199.12,374l-15.77,8.29,3-17.56-12.76-12.43,17.63-2.56,7.88-16,7.88,16,17.63,2.56-12.76,12.43Zm-15.77-11.9,11.53,6.06-2.2-12.84,9.33-9.09-12.89-1.87L199.12,341l-5.76,11.68-12.89,1.87,9.32,9.09-2.2,12.84Z" transform="translate(-55 -58.88)"/><path d="M199.36,67.57m0,30.62" transform="translate(-55 -58.88)"/><polygon class="cls-3" points="246.61 68.94 253.44 82.77 268.69 84.99 257.65 95.75 260.26 110.95 246.61 103.77 232.96 110.95 235.57 95.75 224.53 84.99 239.79 82.77 246.61 68.94"/><path d="M317.38,172.75l-15.77-8.29-15.77,8.29,3-17.56L276.1,142.76l17.63-2.56,7.88-16,7.88,16,17.63,2.56-12.76,12.43Zm-15.77-11.9,11.53,6.06-2.2-12.84,9.33-9.09-12.89-1.87-5.76-11.68-5.76,11.68L283,145l9.33,9.09-2.2,12.84Z" transform="translate(-55 -58.88)"/><polygon class="cls-3" points="41.63 68.94 48.45 82.77 63.71 84.99 52.67 95.75 55.28 110.95 41.63 103.77 27.98 110.95 30.59 95.75 19.55 84.99 34.8 82.77 41.63 68.94"/><path d="M112.4,172.75l-15.77-8.29-15.77,8.29,3-17.56L71.12,142.76l17.63-2.56,7.89-16,7.88,16,17.63,2.56-12.76,12.43Zm-15.77-11.9,11.53,6.06L106,154.08l9.32-9.09-12.89-1.87-5.76-11.68-5.76,11.68L78,145l9.32,9.09-2.2,12.84Z" transform="translate(-55 -58.88)"/></svg>